<svg xmlns="http://www.w3.org/2000/svg" version="1.1" xmlns:xlink="http://www.w3.org/1999/xlink" xmlns:svgjs="http://svgjs.dev/svgjs" width="100%" height="100%" viewBox="0 0 1000 600"><rect width="1000" height="600" x="0" y="0" fill="#20b2aa"/><g><circle r="166.66666666666666" cx="383.2318979899088" cy="405.4540344949244" fill="#d3d3d3" transform="matrix(0.5771934033099088,0,0,0.5771934033099088,0,65.97457894232332)"/><path d="M267.9491777966392 480.4540269406199Q265.80632071865784 480.4540269406199 265.80632071865784 478.3111698626385L265.80632071865784 478.3111698626385L265.80632071865784 332.59688855990737Q265.80632071865784 330.45403148192605 267.9491777966392 330.45403148192605L267.9491777966392 330.45403148192605L278.8717965135719 330.45403148192605Q281.0146535915532 330.45403148192605 281.0146535915532 332.59688855990737L281.0146535915532 332.59688855990737L281.0146535915532 466.3171226067152Q281.0146535915532 467.1802178186799 281.87774880351793 467.1802178186799L281.87774880351793 467.1802178186799L357.5027465139427 467.1802178186799Q359.6456035919241 467.1802178186799 359.6456035919241 469.32307489666124L359.6456035919241 469.32307489666124L359.6456035919241 478.3111698626385Q359.6456035919241 480.4540269406199 357.5027465139427 480.4540269406199L357.5027465139427 480.4540269406199L267.9491777966392 480.4540269406199ZM484.79440932680654 331.9421266749686Q485.8658378657972 330.45403148192605 487.38369496270064 330.45403148192605L487.38369496270064 330.45403148192605L498.5146470066593 330.45403148192605Q500.65750408464066 330.45403148192605 500.65750408464066 332.59688855990737L500.65750408464066 332.59688855990737L500.65750408464066 478.3111698626385Q500.65750408464066 480.4540269406199 498.5146470066593 480.4540269406199L498.5146470066593 480.4540269406199L487.5920282897266 480.4540269406199Q485.4491712117453 480.4540269406199 485.4491712117453 478.3111698626385L485.4491712117453 478.3111698626385L485.4491712117453 359.17426870764814Q485.4491712117453 358.5195068227094 485.0027426538325 358.3111734956835Q484.58607599978063 358.10284016865745 484.3777426727546 358.7278401497354L484.3777426727546 358.7278401497354L449.4372675401144 412.2992670992689Q448.36583900112373 413.81712419617236 446.87774380808116 413.81712419617236L446.87774380808116 413.81712419617236L441.31226778610187 413.81712419617236Q439.7944106891984 413.81712419617236 438.7229821502077 412.5373623301557L438.7229821502077 412.5373623301557L403.8122689214284 359.3826020346741Q403.57417369054156 358.7278401497354 403.1575070364896 358.96593538062217Q402.7408403824377 359.17426870764814 402.7408403824377 359.79926868872604L402.7408403824377 359.79926868872604L402.7408403824377 478.3111698626385Q402.7408403824377 480.4540269406199 400.59798330445636 480.4540269406199L400.59798330445636 480.4540269406199L389.6456026836629 480.4540269406199Q387.5027456056815 480.4540269406199 387.5027456056815 478.3111698626385L387.5027456056815 478.3111698626385L387.5027456056815 332.59688855990737Q387.5027456056815 330.45403148192605 389.6456026836629 330.45403148192605L389.6456026836629 330.45403148192605L400.80631663148233 330.45403148192605Q402.5027451515509 330.45403148192605 403.36584036351564 331.73379334794265L403.36584036351564 331.73379334794265L443.66345819110916 392.8052200704109Q443.87179151813507 393.01355339743685 444.288458172187 393.01355339743685Q444.7348867300998 393.01355339743685 444.94322005712576 392.8052200704109L444.94322005712576 392.8052200704109L484.79440932680654 331.9421266749686Z " fill="#2b2b2b" transform="matrix(0.5771934033099088,0,0,0.5771934033099088,0,65.97457894232332)"/><path d="M635.318061493931 478.570700051573Q633.2319112322923 478.570700051573 633.2319112322923 476.48454978993425L633.2319112322923 476.48454978993425L633.2319112322923 334.6263319985017Q633.2319112322923 332.540181736863 635.318061493931 332.540181736863L635.318061493931 332.540181736863L645.9516329664506 332.540181736863Q648.0377832280893 332.540181736863 648.0377832280893 334.6263319985017L648.0377832280893 334.6263319985017L648.0377832280893 464.80790318659535Q648.0377832280893 465.64815815308873 648.8780381945827 465.64815815308873L648.8780381945827 465.64815815308873L722.5017578449156 465.64815815308873Q724.5879081065543 465.64815815308873 724.5879081065543 467.7343084147274L724.5879081065543 467.7343084147274L724.5879081065543 476.48454978993425Q724.5879081065543 478.570700051573 722.5017578449156 478.570700051573L722.5017578449156 478.570700051573L635.318061493931 478.570700051573ZM758.8065672592671 353.8073246819021Q753.7940117694964 353.8073246819021 750.4619662127122 350.4752791251181Q747.1299206559282 347.143233568334 747.1299206559282 342.1306780785632L747.1299206559282 342.1306780785632Q747.1299206559282 336.91530242446646 750.4619662127122 333.6991541044401Q753.7940117694964 330.4540314752243 758.8065672592671 330.4540314752243L758.8065672592671 330.4540314752243Q763.8191227490379 330.4540314752243 767.151168305822 333.6991541044401Q770.483213862606 336.91530242446646 770.483213862606 342.1306780785632L770.483213862606 342.1306780785632Q770.483213862606 347.143233568334 767.151168305822 350.4752791251181Q763.8191227490379 353.8073246819021 758.8065672592671 353.8073246819021L758.8065672592671 353.8073246819021ZM752.9827311121924 478.367879887247Q750.8965808505537 478.367879887247 750.8965808505537 476.28172962560825L750.8965808505537 476.28172962560825L750.8965808505537 374.9006217718047Q750.8965808505537 372.81447151016596 752.9827311121924 372.81447151016596L752.9827311121924 372.81447151016596L763.6163025847119 372.81447151016596Q765.7024528463506 372.81447151016596 765.7024528463506 374.9006217718047L765.7024528463506 374.9006217718047L765.7024528463506 476.28172962560825Q765.7024528463506 478.367879887247 763.6163025847119 478.367879887247L763.6163025847119 478.367879887247L752.9827311121924 478.367879887247ZM836.6315617420669 479.6137751823923Q824.954915138728 479.6137751823923 815.8569820532481 475.8471149877669Q806.7880232769575 472.10942910233086 801.8913650239444 465.85097831741473Q796.9947067709313 459.5925275324986 796.9947067709313 451.85638697892165L796.9947067709313 451.85638697892165L796.9947067709313 449.36459638863096Q796.9947067709313 447.27844612699226 799.0808570325701 447.27844612699226L799.0808570325701 447.27844612699226L809.0769937029222 447.27844612699226Q811.163143964561 447.27844612699226 811.163143964561 449.36459638863096L811.163143964561 449.36459638863096L811.163143964561 451.0451063216177Q811.163143964561 457.91201759951184 818.3777469527282 463.04047032604035Q825.563375631706 468.13994874337936 836.4287415777409 468.13994874337936L836.4287415777409 468.13994874337936Q847.2651332145864 468.13994874337936 853.9292243281546 463.24329049036635Q860.622289750912 458.3466322373532 860.622289750912 450.81331184810233L860.622289750912 450.81331184810233Q860.622289750912 445.5979361940055 857.1743469573704 442.26589063722145Q853.7264041638286 438.93384508043744 849.0325660751415 437.0505149831247Q844.3387279864544 435.16718488581193 834.5454114804282 432.2697539668693L834.5454114804282 432.2697539668693Q822.8687648770892 428.9087341008958 815.3354444878383 425.5766885441118Q807.831098407777 422.2446429873277 802.7316199904378 416.3049096034953Q797.6031672639093 410.36517621966277 797.6031672639093 401.18032020661457L797.6031672639093 401.18032020661457Q797.6031672639093 387.8231636702889 808.0339185721028 379.88420295238603Q818.4646698802965 371.9742165436726 835.5884866112475 371.9742165436726L835.5884866112475 371.9742165436726Q847.0623130502605 371.9742165436726 855.928451662225 375.7119024291086Q864.7945902741895 379.4785626237341 869.5753512904449 386.0557308097339Q874.3850866158897 392.63289899573374 874.3850866158897 400.7457055687732L874.3850866158897 400.7457055687732L874.3850866158897 401.38314037094057Q874.3850866158897 403.46929063257926 872.2989363542509 403.46929063257926L872.2989363542509 403.46929063257926L862.5056198482249 403.46929063257926Q860.4194695865862 403.46929063257926 860.4194695865862 401.38314037094057L860.4194695865862 401.38314037094057L860.4194695865862 400.7457055687732Q860.4194695865862 393.6759741265531 853.6394812362603 388.8662388011083Q846.8594928859345 384.0565034756635 835.3856664469216 384.0565034756635L835.3856664469216 384.0565034756635Q824.7231206652126 384.0565034756635 818.2618497159705 388.3447012356986Q811.8005787667283 392.63289899573374 811.8005787667283 400.13724507579525L811.8005787667283 400.13724507579525Q811.8005787667283 407.23595082720476 818.0590295516445 410.97363671264077Q824.3174803365606 414.7402969072662 837.4718167085603 418.4779827927023L837.4718167085603 418.4779827927023Q849.5541036405511 422.0418228230017 857.0584497206127 425.1710482154598Q864.5917701098635 428.30027360791786 870.0099659282863 434.2400069917503Q875.4281617467092 440.17974037558275 875.4281617467092 449.77023671728296L875.4281617467092 449.77023671728296Q875.4281617467092 463.3302134179346 864.7945902741895 471.4719943001635Q854.1610188016699 479.6137751823923 836.6315617420669 479.6137751823923L836.6315617420669 479.6137751823923ZM938.8529245623639 371.3367817415052Q957.6282769171123 371.3367817415052 967.8562080609798 380.9272780832054Q978.0551648956581 390.54674873409505 978.0551648956581 406.3956958607114L978.0551648956581 406.3956958607114L978.0551648956581 476.48454978993425Q978.0551648956581 478.570700051573 975.9690146340193 478.570700051573L975.9690146340193 478.570700051573L965.3354431614997 478.570700051573Q963.2492928998611 478.570700051573 963.2492928998611 476.48454978993425L963.2492928998611 476.48454978993425L963.2492928998611 467.9371285790534Q963.2492928998611 467.502513941212 962.9305754987773 467.299693776886Q962.6408324068831 467.09687361256005 962.2062177690417 467.502513941212L962.2062177690417 467.502513941212Q956.9908421149449 473.7609647261282 948.64624106839 477.00608735534394Q940.3016400218352 480.2512099845597 930.0737088779676 480.2512099845597L930.0737088779676 480.2512099845597Q915.2678368821706 480.2512099845597 905.2717002118185 472.71788959530875Q895.246589232277 465.21354351524735 895.246589232277 449.77023671728296L895.246589232277 449.77023671728296Q895.246589232277 434.12410975499256 906.6045184345321 425.05515097870204Q917.9914219459768 415.98619220241153 938.2154897601964 415.98619220241153L938.2154897601964 415.98619220241153L962.4090379333677 415.98619220241153Q963.2492928998611 415.98619220241153 963.2492928998611 415.1459372359182L963.2492928998611 415.1459372359182L963.2492928998611 407.23595082720476Q963.2492928998611 396.57340504549575 957.3095595160286 390.4308514973373Q951.3698261321962 384.2882979491789 938.8529245623639 384.2882979491789L938.8529245623639 384.2882979491789Q928.8278135828223 384.2882979491789 922.5693627979061 388.1418810713726Q916.31091201299 391.99546419356636 914.8621965535186 398.8913497806499L914.8621965535186 398.8913497806499Q914.2247617513514 400.9775000422886 912.3414316540385 400.7457055687732L912.3414316540385 400.7457055687732L901.099399688541 399.2969901093019Q898.781454953387 398.8913497806499 899.2160695912283 397.6164801763151L899.2160695912283 397.6164801763151Q900.8676052150257 385.9398335729762 911.7329711610606 378.6383076572407Q922.5693627979061 371.3367817415052 938.8529245623639 371.3367817415052L938.8529245623639 371.3367817415052ZM933.0001141060997 467.502513941212Q945.314195511606 467.502513941212 954.2962313603283 461.3599603930536Q963.2492928998611 455.21740684489515 963.2492928998611 444.7866555367016L963.2492928998611 444.7866555367016L963.2492928998611 428.50309377224386Q963.2492928998611 427.6628388057505 962.4090379333677 427.6628388057505L962.4090379333677 427.6628388057505L940.5044601861612 427.6628388057505Q926.7416633211835 427.6628388057505 918.3970622746286 433.3128290976887Q910.0524612280739 438.93384508043744 910.0524612280739 448.958956059979L910.0524612280739 448.958956059979Q910.0524612280739 458.1148377638378 916.4268092497477 462.8086758525249Q922.7721829622321 467.502513941212 933.0001141060997 467.502513941212L933.0001141060997 467.502513941212ZM1148.3082056927287 333.98889719633434Q1149.351280823548 332.540181736863 1150.7999962830195 332.540181736863L1150.7999962830195 332.540181736863L1161.6363879198648 332.540181736863Q1163.7225381815038 332.540181736863 1163.7225381815038 334.6263319985017L1163.7225381815038 334.6263319985017L1163.7225381815038 476.48454978993425Q1163.7225381815038 478.570700051573 1161.6363879198648 478.570700051573L1161.6363879198648 478.570700051573L1151.0028164473451 478.570700051573Q1148.9166661857066 478.570700051573 1148.9166661857066 476.48454978993425L1148.9166661857066 476.48454978993425L1148.9166661857066 360.50039010465963Q1148.9166661857066 359.86295530249225 1148.5110258570546 359.6601351381663Q1148.0764112192132 359.4573149738403 1147.8735910548871 360.06577546681825L1147.8735910548871 360.06577546681825L1113.8867263756897 412.2195320077861Q1112.8436512448704 413.6972217764469 1111.3659614762096 413.6972217764469L1111.3659614762096 413.6972217764469L1105.947765657787 413.6972217764469Q1104.4990501983157 413.6972217764469 1103.4559750674962 412.4513264813015L1103.4559750674962 412.4513264813015L1069.4401360791094 360.70321026898563Q1069.2373159147833 360.06577546681825 1068.8027012769421 360.2975699403337Q1068.3970609482903 360.50039010465963 1068.3970609482903 361.1088505976376L1068.3970609482903 361.1088505976376L1068.3970609482903 476.48454978993425Q1068.3970609482903 478.570700051573 1066.3109106866514 478.570700051573L1066.3109106866514 478.570700051573L1055.6773392141317 478.570700051573Q1053.5911889524932 478.570700051573 1053.5911889524932 476.48454978993425L1053.5911889524932 476.48454978993425L1053.5911889524932 334.6263319985017Q1053.5911889524932 332.540181736863 1055.6773392141317 332.540181736863L1055.6773392141317 332.540181736863L1066.5137308509775 332.540181736863Q1068.1942407839642 332.540181736863 1069.0344957504576 333.78607703200834L1069.0344957504576 333.78607703200834L1108.2367360837516 393.2413594887117Q1108.4395562480777 393.4441796530377 1108.874170885919 393.4441796530377Q1109.279811214571 393.4441796530377 1109.482631378897 393.2413594887117L1109.482631378897 393.2413594887117L1148.3082056927287 333.98889719633434ZM1209.8496384110706 353.8073246819021Q1204.8370829213 353.8073246819021 1201.5050373645158 350.4752791251181Q1198.1440174985423 347.143233568334 1198.1440174985423 342.1306780785632L1198.1440174985423 342.1306780785632Q1198.1440174985423 336.91530242446646 1201.5050373645158 333.6991541044401Q1204.8370829213 330.4540314752243 1209.8496384110706 330.4540314752243L1209.8496384110706 330.4540314752243Q1214.833219591652 330.4540314752243 1218.1942394576254 333.6991541044401Q1221.5262850144095 336.91530242446646 1221.5262850144095 342.1306780785632L1221.5262850144095 342.1306780785632Q1221.5262850144095 347.143233568334 1218.1942394576254 350.4752791251181Q1214.833219591652 353.8073246819021 1209.8496384110706 353.8073246819021L1209.8496384110706 353.8073246819021ZM1203.9968279548066 478.367879887247Q1201.9106776931678 478.367879887247 1201.9106776931678 476.28172962560825L1201.9106776931678 476.28172962560825L1201.9106776931678 374.9006217718047Q1201.9106776931678 372.81447151016596 1203.9968279548066 372.81447151016596L1203.9968279548066 372.81447151016596L1214.630399427326 372.81447151016596Q1216.7165496889647 372.81447151016596 1216.7165496889647 374.9006217718047L1216.7165496889647 374.9006217718047L1216.7165496889647 476.28172962560825Q1216.7165496889647 478.367879887247 1214.630399427326 478.367879887247L1214.630399427326 478.367879887247L1203.9968279548066 478.367879887247ZM1255.1075093649551 478.570700051573Q1253.0213591033162 478.570700051573 1253.0213591033162 476.48454978993425L1253.0213591033162 476.48454978993425L1253.0213591033162 334.6263319985017Q1253.0213591033162 332.540181736863 1255.1075093649551 332.540181736863L1255.1075093649551 332.540181736863L1265.7410808374743 332.540181736863Q1267.8272310991133 332.540181736863 1267.8272310991133 334.6263319985017L1267.8272310991133 334.6263319985017L1267.8272310991133 476.48454978993425Q1267.8272310991133 478.570700051573 1265.7410808374743 478.570700051573L1265.7410808374743 478.570700051573L1255.1075093649551 478.570700051573ZM1303.0889653826453 478.570700051573Q1301.0028151210067 478.570700051573 1301.0028151210067 476.48454978993425L1301.0028151210067 476.48454978993425L1301.0028151210067 334.6263319985017Q1301.0028151210067 332.540181736863 1303.0889653826453 332.540181736863L1303.0889653826453 332.540181736863L1313.722536855165 332.540181736863Q1315.8086871168034 332.540181736863 1315.8086871168034 334.6263319985017L1315.8086871168034 334.6263319985017L1315.8086871168034 476.48454978993425Q1315.8086871168034 478.570700051573 1313.722536855165 478.570700051573L1313.722536855165 478.570700051573L1303.0889653826453 478.570700051573ZM1429.9384910139547 408.0472314845087Q1430.7497716712587 413.90004194077284 1430.7497716712587 422.65028331597966L1430.7497716712587 422.65028331597966L1430.7497716712587 429.34334873873723Q1430.7497716712587 431.4294990003759 1428.6636214096202 431.4294990003759L1428.6636214096202 431.4294990003759L1361.2983525442032 431.4294990003759Q1360.4580975777099 431.4294990003759 1360.4580975777099 432.2697539668693L1360.4580975777099 432.2697539668693Q1360.8637379063616 443.74358040588226 1361.7039928728555 447.07562596266627L1361.7039928728555 447.07562596266627Q1363.99296329882 456.46330214004047 1371.526283688071 461.8814979584632Q1379.0306297681323 467.299693776886 1390.7072763714714 467.299693776886L1390.7072763714714 467.299693776886Q1399.4575177466781 467.299693776886 1406.1505831694358 463.3302134179346Q1412.8146742830036 459.3897073681726 1416.5813344776293 452.0881814524371L1416.5813344776293 452.0881814524371Q1417.8272297727744 450.20485135512433 1419.5077397057612 451.2479264859437L1419.5077397057612 451.2479264859437L1427.6205462788007 456.0286875021991Q1429.3010562117875 457.07176263301847 1428.460801245294 458.9550927303312L1428.460801245294 458.9550927303312Q1423.2454255911975 468.98020370987274 1412.8146742830036 474.71711692937924Q1402.38392297481 480.4540301488857 1388.8239462741585 480.4540301488857L1388.8239462741585 480.4540301488857Q1374.0180742783614 480.2512099845597 1363.99296329882 473.3553243974762Q1353.9968266284677 466.45943881039267 1349.6217059408646 454.1743317140758L1349.6217059408646 454.1743317140758Q1345.8550457462388 444.1492207345342 1345.8550457462388 425.3738683797858L1345.8550457462388 425.3738683797858Q1345.8550457462388 416.62362700457896 1346.1737631473225 411.08953394939846Q1346.492480548406 405.555440894218 1347.7383758435517 401.18032020661457L1347.7383758435517 401.18032020661457Q1351.2732415646615 387.6203435059629 1362.022710273939 379.4785626237341Q1372.7721789832162 371.3367817415052 1387.9836913076651 371.3367817415052L1387.9836913076651 371.3367817415052Q1406.9908381359292 371.3367817415052 1417.1897949706072 380.9272780832054Q1427.417726114475 390.54674873409505 1429.9384910139547 408.0472314845087L1429.9384910139547 408.0472314845087ZM1387.9836913076651 384.2882979491789Q1377.784734472987 384.2882979491789 1371.0047461226613 389.590596530844Q1364.2247577723356 394.92186942169843 1362.1386075106966 403.87493096123126L1362.1386075106966 403.87493096123126Q1360.8637379063616 408.2790259580241 1360.4580975777099 418.0723424640503L1360.4580975777099 418.0723424640503Q1360.4580975777099 418.91259743054366 1361.2983525442032 418.91259743054366L1361.2983525442032 418.91259743054366L1415.3354391824837 418.91259743054366Q1416.1467198397877 418.91259743054366 1416.1467198397877 418.0723424640503L1416.1467198397877 418.0723424640503Q1415.741079511136 408.6846662866761 1414.9008245446425 404.71518592772463L1414.9008245446425 404.71518592772463Q1412.611854118678 395.32750975035043 1405.629045604026 389.7934166951699Q1398.6462370893742 384.2882979491789 1387.9836913076651 384.2882979491789L1387.9836913076651 384.2882979491789ZM1502.7219556977943 371.9742165436726Q1509.617841284878 371.9742165436726 1514.630396774649 374.6688272982893L1514.630396774649 374.6688272982893Q1516.2819323984463 375.50908226478265 1515.876292069794 377.39241236209534L1515.876292069794 377.39241236209534L1513.5873216438295 387.6203435059629Q1512.9498868416617 389.70649376760167 1510.8637365800232 388.8662388011083L1510.8637365800232 388.8662388011083Q1507.3288708589134 387.417523341637 1502.7219556977943 387.417523341637L1502.7219556977943 387.417523341637L1500.027344943178 387.6203435059629Q1489.1619789971428 388.0259838346149 1482.0922475549228 395.6462271514341Q1474.9935418035134 403.2664704682533 1474.9935418035134 414.9431170715922L1474.9935418035134 414.9431170715922L1474.9935418035134 476.48454978993425Q1474.9935418035134 478.570700051573 1472.9073915418744 478.570700051573L1472.9073915418744 478.570700051573L1462.2738200693548 478.570700051573Q1460.1876698077162 478.570700051573 1460.1876698077162 476.48454978993425L1460.1876698077162 476.48454978993425L1460.1876698077162 375.10344193613065Q1460.1876698077162 373.01729167449196 1462.2738200693548 373.01729167449196L1462.2738200693548 373.01729167449196L1472.9073915418744 373.01729167449196Q1474.9935418035134 373.01729167449196 1474.9935418035134 375.10344193613065L1474.9935418035134 375.10344193613065L1474.9935418035134 387.8231636702889Q1474.9935418035134 388.4605984724563 1475.312259204597 388.5475214000246Q1475.6020022964913 388.6634186367823 1475.8337967700063 388.2288039989409L1475.8337967700063 388.2288039989409Q1480.20891745761 380.5216377545534 1486.9889058079357 376.2334399945183Q1493.7688941582614 371.9742165436726 1502.7219556977943 371.9742165436726L1502.7219556977943 371.9742165436726Z " fill="#2b2b2b" transform="matrix(0.5771934033099088,0,0,0.5771934033099088,0,65.97457894232332)"/></g></svg>